<svg xmlns="http://www.w3.org/2000/svg" viewBox="0 0 64 64" role="img" aria-label="ReadyStackGo"><title>ReadyStackGo</title><defs><mask id="rsgo-joint" maskUnits="userSpaceOnUse" x="7.92" y="9.24" width="48.15" height="45.52"><rect x="7.92" y="9.24" width="48.15" height="45.52" fill="#fff"/><polygon points="20.23,27.65 31.54,34.18 31.54,47.23 20.23,53.76 8.92,47.23 8.92,34.18" fill="#000" stroke="#000" stroke-width="1.85" stroke-linejoin="miter"/><polygon points="43.77,27.65 55.08,34.18 55.08,47.23 43.77,53.76 32.46,47.23 32.46,34.18" fill="#000" stroke="#000" stroke-width="1.85" stroke-linejoin="miter"/></mask></defs><rect width="64" height="64" rx="14.08" fill="#091012"/><g mask="url(#rsgo-joint)"><polygon points="32.00,10.24 43.31,16.77 32.00,23.30 20.69,16.77" fill="#FF7B43"/><polygon points="20.69,16.77 32.00,23.30 32.00,36.35 20.69,29.82" fill="#FF6B35"/><polygon points="32.00,23.30 43.31,16.77 43.31,29.82 32.00,36.35" fill="#D84B16"/></g><polygon points="20.23,27.65 31.54,34.18 20.23,40.70 8.92,34.18" fill="#0BDCDD"/><polygon points="8.92,34.18 20.23,40.70 20.23,53.76 8.92,47.23" fill="#00CED1"/><polygon points="20.23,40.70 31.54,34.18 31.54,47.23 20.23,53.76" fill="#00A3A5"/><polygon points="43.77,27.65 55.08,34.18 43.77,40.70 32.46,34.18" fill="#FFFFFF"/><polygon points="32.46,34.18 43.77,40.70 43.77,53.76 32.46,47.23" fill="#E4E8E9"/><polygon points="43.77,40.70 55.08,34.18 55.08,47.23 43.77,53.76" fill="#C7CCCF"/></svg>
